<svg width="82" height="82" xmlns="http://www.w3.org/2000/svg" xmlns:xlink="http://www.w3.org/1999/xlink" xml:space="preserve" overflow="hidden"><g transform="translate(-28 -865)"><path d="M90.7812 883.792 87.45 887.123C98.0417 897.715 98.0417 914.969 87.45 925.56L90.7812 928.892C103.252 916.506 103.252 896.263 90.7812 883.792Z" fill="#FFFFFF"/><path d="M84.0333 890.454 80.7021 893.785C87.6208 900.704 87.6208 911.894 80.7021 918.898L84.0333 922.229C92.8313 913.431 92.8313 899.252 84.0333 890.454Z" fill="#FFFFFF"/><path d="M77.4563 897.287 74.125 900.619C77.3708 903.865 77.3708 909.075 74.125 912.321L77.4563 915.652C82.5813 910.527 82.5813 902.327 77.4563 897.287Z" fill="#FFFFFF"/><path d="M30.9896 894.554 30.9896 917.446 47.5604 917.446 69 935.042 69 876.958 47.5604 894.554Z" fill="#FFFFFF"/></g></svg>